HIERARCHY
ROOT Hips
{
  OFFSET 0.0 0.0 0.0
  CHANNELS 6 XPOSITION YPOSITION ZPOSITION ZROTATION XROTATION YROTATION 
  JOINT RightUpLeg
  {
    OFFSET -0.089458 -0.0866707 0.00101652
    CHANNELS 3 ZROTATION XROTATION YROTATION 
    JOINT RightLeg
    {
      OFFSET 0.0 -0.444227 0.013727
      CHANNELS 3 ZROTATION XROTATION YROTATION 
      JOINT RightFoot
      {
        OFFSET 0.00253549 -0.420924 -0.0146059
        CHANNELS 3 ZROTATION XROTATION YROTATION 
        End Site
        {
          OFFSET 0.0004 -0.0441509 0.084991
        }
      }
    }
  }
  JOINT Spine
  {
    OFFSET 0.0 0.118905 0.0
    CHANNELS 3 ZROTATION XROTATION YROTATION 
    JOINT Spine1
    {
      OFFSET 0.0 0.256574 0.00127663
      CHANNELS 3 ZROTATION XROTATION YROTATION 
      End Site
      {
        OFFSET -0.0029 0.2150836 0.02525291
      }
      JOINT RightArm
      {
        OFFSET -0.162727 -0.05365632 0.00102123
        CHANNELS 3 ZROTATION XROTATION YROTATION 
        JOINT RightForeArm
        {
          OFFSET -0.26364 0.00099144 -0.0142434
          CHANNELS 3 ZROTATION XROTATION YROTATION 
          End Site
          {
            OFFSET -0.220324 0.00085362 0.0102216
          }
        }
      }
      JOINT LeftArm
      {
        OFFSET 0.162727 -0.0536563199 0.00102123
        CHANNELS 3 ZROTATION XROTATION YROTATION 
        JOINT LeftForeArm
        {
          OFFSET 0.262597 0.00099144 -0.0142434
          CHANNELS 3 ZROTATION XROTATION YROTATION 
          End Site
          {
            OFFSET 0.220902 0.00085362 0.0102216
          }
        }
      }
    }
  }
  JOINT LeftUpLeg
  {
    OFFSET 0.089458 -0.0866707 0.00101652
    CHANNELS 3 ZROTATION XROTATION YROTATION 
    JOINT LeftLeg
    {
      OFFSET 0.0 -0.444227 0.013727
      CHANNELS 3 ZROTATION XROTATION YROTATION 
      JOINT LeftFoot
      {
        OFFSET -0.00253549 -0.420924 -0.0146059
        CHANNELS 3 ZROTATION XROTATION YROTATION 
        End Site
        {
          OFFSET -0.0004 -0.0441509 0.084991
        }
      }
    }
  }
}
MOTION
Frames: 18
Frame Time: 0.033333
-1.03638 0.985289419932 -1.08794 -0.486287751038 0.515380995168 90.0046197124 3.23245191151 -4.1321692521 1.55926975532 -1.31501226548 13.5468819404 -14.42365881 1.67645328319 -47.1321267639 2.0065038187 -5.03679152228 3.9522185269 -1.2039436779 3.15121193397 6.38601257678 -2.05393862871 80.570195525 -19.8566781437 12.9629494314 5.93238641682 60.3296539198 10.3864816944 -108.030725196 -56.8603651988 -38.3269098482 -173.83383317 62.3745032742 173.93276163 -1.21136755992 -8.79635389148 -1.19613815906 1.8367307157 18.8232483242 12.0831126371 -13.325528316 -48.4648605955 -10.2961917162 
-1.03523572215 0.984371232432 -1.08482746552 -0.510153979463 0.46111935772 90.3100111305 3.47167160322 -4.18572177717 1.58809080574 -1.21975716665 13.8277862766 -14.7889526947 1.57942692422 -47.4544809569 2.01231695001 -4.77003250783 4.40668394635 -1.29207414237 3.10322323831 5.93139732005 -2.11642931009 80.6070102447 -20.3249251774 12.7182348525 6.12265670408 60.5269507641 10.112386203 -108.145964148 -56.6816806199 -38.5372625992 -173.826470226 62.280656475 174.071564734 -0.945364241866 -9.42050767689 -1.28873001772 1.9063625733 20.0664878947 11.806990287 -13.8934167105 -48.766290504 -10.466631403 
-1.0338312351 0.983419044932 -1.08171180439 -0.504894520358 0.42369568404 90.5617992241 3.73377157489 -4.21975276782 1.65535739017 -1.17368380544 14.1600519278 -15.1397255973 1.50367148186 -47.7961543399 2.0199161758 -4.51928857944 4.69656229737 -1.34460982303 3.13657035627 5.80268752779 -2.16280053158 80.4549838941 -20.3259428756 12.5811188049 6.31191441579 60.3459849021 9.92610560001 -108.697488263 -56.5981542365 -39.1206666222 -173.77934192 62.2826918714 174.261116144 -0.669216598793 -10.1842329629 -1.4573397474 1.9637079878 21.6366220263 11.6197150377 -14.5672106033 -48.8337556975 -10.5748745334 
-1.03249584082 0.982221857432 -1.07886890731 -0.544070030838 0.38864688848 90.7760622584 3.96487956319 -4.41934882462 1.69472329217 -1.12474453954 14.7092614626 -15.437031779 1.42459582052 -48.2216136535 2.03108353509 -4.2966598441 5.05673951664 -1.32028196987 3.34135394174 5.6290799139 -2.16609225588 80.0994452271 -19.9225348277 12.4388510872 6.15064596553 59.9211403055 10.1417645542 -109.090545159 -56.3793252208 -39.503563612 -173.680263196 62.6211072542 174.097095981 -0.492379746169 -11.2591911864 -1.79614658543 2.04013396263 23.6295107167 11.64042161 -14.7387371439 -48.6946588951 -10.5508126307 
-1.03085126015 0.980700419932 -1.07617313665 -0.505233681939 0.374066008747 91.0501987309 4.17226587762 -4.6013669627 1.6730401096 -1.06804116283 15.4417360718 -15.7353163853 1.3894582325 -48.7730148252 2.05273929018 -4.06614224028 5.46155714479 -1.30779350258 3.61251736098 5.56083266371 -2.19512248084 79.8269889811 -19.7192735207 12.4121971277 5.94774196274 59.6770703257 10.3440517055 -109.493929301 -56.1903714525 -39.8868533377 -173.596948549 62.9771581855 173.920467289 -0.471516879988 -12.4699540611 -2.424262094 2.12109966538 25.9438434773 11.8553744933 -14.1010775132 -48.4005475343 -10.3749062313 
-1.02848361175 0.979046607432 -1.07352118439 -0.407356217359 0.359041113357 91.3307419209 4.38854808656 -4.66882916802 1.63129890259 -1.01780597525 16.1679405674 -16.0078648389 1.39086418425 -49.3732552646 2.08022119664 -3.77721712754 5.71606792251 -1.30997297325 3.80720293865 5.69396969922 -2.22323361847 79.776582185 -20.1336815882 12.5164266682 5.97909210414 59.8558846782 10.1963906996 -109.746598489 -56.1202663909 -40.0600874256 -173.584066812 63.12968997 173.892285929 -0.510017055514 -13.657904104 -3.07660876587 2.09516223545 28.2619106439 11.9714740489 -12.752156987 -48.1124399098 -10.1188578073 
-1.02561917311 0.977477544932 -1.07099292067 -0.424876479674 0.308041264763 91.4639920814 4.61108205302 -4.79151857542 1.64033470925 -0.979984549778 16.7897746498 -16.1743472848 1.35193829584 -49.9323199085 2.10094868634 -3.46359170288 5.8833806633 -1.25531032899 3.92538271365 5.62277522241 -2.17832789944 79.7070576894 -20.6466561156 12.5880394941 6.1868241969 60.0732895994 9.8519271843 -109.412370013 -56.2394053806 -39.5445174263 -173.668911422 62.9999027154 173.844037472 -0.493253690218 -14.9676970377 -3.58444699104 1.81222613139 30.4755800765 11.69295601 -11.7406290228 -48.1543841015 -10.005152233 
-1.02220943129 0.975992857432 -1.06874835788 -0.399432290788 0.389041598708 91.6281146969 4.68534926118 -4.81033660035 1.54967686135 -0.969620271321 17.3732128238 -16.2836542172 1.32423600907 -50.5505783869 2.12546970579 -3.19812359418 6.15957473032 -1.19240972955 3.97099770514 5.32401079528 -2.10861279892 79.5172125815 -20.8560645929 12.4828349441 6.20312913911 59.7156950455 9.82342992754 -108.643270221 -56.4717718312 -38.5083265028 -173.784956336 62.7450273763 173.728566294 -0.694923936725 -16.4362116149 -4.61946611022 1.21171643317 32.8125873577 11.276761848 -12.7407582551 -48.6950345555 -10.2950254614 
-1.0182362663 0.974620669932 -1.06698645445 -0.158729247402 0.533857190482 92.0659981246 4.61077127941 -4.49385594318 1.23507578686 -0.910104457493 17.8438623765 -16.4624549093 1.33615949164 -51.1911647537 2.15700020687 -2.8458789993 6.67527493011 -1.22859126929 3.88037134014 5.12885606899 -2.11727027713 79.7019691985 -21.7175444001 12.6533915979 6.3248405488 60.0677161651 9.52564050991 -108.051502632 -56.8218873281 -37.7436151082 -173.597863794 63.4652708243 173.443460538 -1.24496173863 -18.1920141939 -5.91532887315 0.751591828473 35.6800886014 10.603508394 -13.4091272701 -48.4793440117 -10.3110260333 
-1.0135438825 0.973554169932 -1.06568512092 0.0725327069732 0.650585443562 92.5841977468 4.5149356145 -4.00141253751 0.869608532708 -0.858480607085 18.04311607 -16.6584488951 1.42775969221 -51.6933270917 2.19449453032 -2.42998472531 7.02053800444 -1.24213468064 3.81670287801 5.16147449115 -2.10436228682 79.8362848685 -22.4404806501 12.8981522805 6.38364719689 60.2258008934 9.39355916552 -107.961678814 -57.3498472906 -37.5256945076 -173.655578893 63.2383104684 173.681560932 -1.95672006394 -20.370894058 -6.66586933273 0.759431018011 38.9040403425 10.0391085185 -13.1613835023 -47.5807574943 -9.99773464761 
-1.00792922305 0.972820044932 -1.06475350247 0.198161970533 0.864816514675 92.7902508936 4.35457942138 -3.4474039411 0.471079534438 -0.793279888072 17.9970549818 -16.5218775551 1.51315381214 -52.0814457611 2.22483145585 -2.05436295422 7.16644023663 -1.06789591458 3.76857096182 5.20465281265 -1.89852941354 79.6331140615 -22.3589982009 13.0551979664 6.26530093603 59.9312421553 9.64569901382 -108.178762716 -58.1584392354 -37.5065904685 -173.750258975 62.8058638713 174.122422322 -2.62008148307 -22.6880818377 -6.82723127122 0.828057076892 41.6404702561 9.76803965469 -11.9010283315 -46.7334247164 -9.6045334637 
-1.00169172008 0.972528294932 -1.06416427287 0.198844522542 1.08518675191 92.597564427 4.12779280839 -2.91392347824 0.13809469897 -0.768771568505 17.7655918237 -16.032585001 1.58682039055 -52.3641780267 2.24904746467 -1.68287472823 7.33854990465 -0.737410221322 3.49933493658 4.97433285742 -1.48667124774 79.3597084192 -21.9433111805 13.2518331361 6.28693897532 59.619129831 9.81618480438 -107.757353705 -59.1673128174 -36.7262413559 -173.742021767 62.7373775645 174.364935019 -3.12221500618 -24.9281875176 -6.54207770356 0.839440921165 43.1313127217 9.44721286277 -11.1349756586 -46.4627204139 -9.45073041019 
-0.994876054857 0.972640419932 -1.06384795893 0.187023479461 1.22926575047 92.3849747891 3.89391347083 -2.24293892767 -0.106924450342 -0.800476346137 17.292271667 -15.5839013367 1.64609746792 -52.5194316416 2.27107631884 -1.32947668515 7.67490086278 -0.44034413674 3.052381658 4.53967242524 -1.08187069507 79.3227707562 -21.7717692719 13.6329414701 6.34272411848 59.5406441272 9.83761281535 -106.229645293 -60.190147306 -34.8251025966 -173.694196782 62.9102223316 174.348938716 -3.59658637163 -27.0130344598 -6.36611410129 0.767921583479 43.2497891831 9.3396937324 -11.4246465426 -46.5162964178 -9.49463828127 
-0.986848994917 0.972761669932 -1.06337591789 0.360236529864 1.42575364431 92.7448164753 3.73047344729 -1.06871222891 -0.401077646006 -0.77022277026 16.4282732276 -15.6861117026 1.67858846436 -52.6091564216 2.28486156158 -1.32594441013 8.01948646773 -0.410795084204 2.95791267126 4.41773263111 -1.05566699448 79.3775215525 -21.2804823026 14.1985904164 5.95477492315 59.1263453427 10.2858345881 -104.83979059 -61.428658678 -33.1792182519 -173.777975883 62.5479354376 174.7087121 -4.28449911917 -28.8344461284 -6.77684283127 0.718420747965 42.3787010073 9.58785072665 -11.8328288927 -46.4295086191 -9.50937612195 
-0.978322410759 0.971939294932 -1.06338132278 0.400265920712 1.65628330769 92.8218268582 3.51097699402 -0.302742878917 -0.704759996099 -0.797943840058 16.153790123 -15.5037080857 1.85783066415 -53.041217113 2.33580474095 -1.17402648884 8.24033807322 -0.275420227926 2.61959910096 4.31216309286 -0.863782861593 79.0384094904 -19.2473381849 14.6868038006 5.10425628892 56.9859211512 11.576507261 -103.777457117 -62.4398681846 -31.9824734867 -173.862861474 62.1551039377 175.228790025 -4.93074984721 -30.7024004136 -7.00920202486 0.732106579432 40.7555441171 9.938805483 -11.8606832579 -46.4267184868 -9.51112806548 
-0.968529178643 0.970943169932 -1.06358940891 0.567327411931 1.89137692482 92.8114859518 3.2426295337 0.638192385478 -1.07071443483 -0.807919704867 15.9704712607 -15.226641462 1.96122542748 -53.5253033554 2.38147949659 -1.1400678555 8.45627023496 -0.11377330247 2.24244907504 4.37118745323 -0.639378277073 78.7904258122 -17.4690233024 15.2943491272 4.41082517542 55.3018082377 12.611108458 -102.882668185 -63.4695806737 -31.0404708719 -173.941545253 61.5846943496 175.782827649 -5.5285399562 -32.2374068824 -7.14119628434 0.75072258018 38.7935517874 9.91226678298 -11.8846828351 -46.4798676039 -9.52895485921 
-0.95731971421 0.969753419932 -1.06405121888 0.816432148285 2.03081054097 92.7888985162 3.09531921533 1.81248226349 -1.38610781127 -0.817606460575 15.6644412199 -15.0276387779 1.92399193188 -53.9425493665 2.39848005087 -1.10945772241 8.75801860099 0.0275797002239 1.95069861186 4.35988733214 -0.446913337979 78.4237675972 -15.7366124137 15.9326644561 3.87224469568 53.6791636117 13.4589987501 -101.771293954 -64.4916979924 -29.8631033533 -173.982512728 61.20740153 176.086033407 -5.95803036206 -33.488178444 -7.18011598289 0.771950968203 36.8611683278 10.0721119926 -12.2870322036 -46.5014441714 -9.57440635304 
-0.944606151959 0.968121813682 -1.06481280544 1.06924359629 2.07707440042 92.604497069 3.03619410967 3.04521358791 -1.64230649949 -0.862098686354 15.4119018055 -14.7134739817 2.04230831066 -54.4381103266 2.45042001097 -0.969926455895 9.07773719471 0.219913174852 1.59841356945 4.16736735132 -0.173655411873 77.9025626918 -13.8137929265 16.3817579318 3.17490308544 51.8304363091 14.5174543827 -100.46773186 -65.4706826665 -28.4520631104 -173.995804276 60.8642938072 176.381985504 -6.14507936135 -34.5666175026 -6.93295576938 0.817226904828 35.396891883 10.6795087626 -12.6433529273 -46.5068570964 -9.61035876128 
